<svg width="16" height="16" viewBox="0 0 16 16" fill="none" xmlns="http://www.w3.org/2000/svg">
<path fill-rule="evenodd" clip-rule="evenodd" d="M4.00013 0C4.44197 0 4.80022 0.35811 4.80022 0.799945V1.59989H11.1999V0.799945C11.1999 0.35811 11.5582 0 12 0C12.4418 0 12.7999 0.35811 12.7999 0.799945V1.59989H13.5999C14.9255 1.59989 15.9999 2.67439 15.9999 3.99986V9.60002C15.9999 10.0419 15.6417 10.4 15.1999 10.4C14.7581 10.4 14.4 10.0419 14.4 9.60002V6.39997H1.59989V13.5999C1.59989 14.0417 1.95814 14.4 2.39997 14.4H7.99979C8.44162 14.4 8.79973 14.7581 8.79973 15.1999C8.79973 15.6417 8.44162 15.9999 7.99979 15.9999H2.39997C1.0745 15.9999 0 14.9255 0 13.5999V4C0 2.67453 1.0745 1.60003 2.39997 1.60003H3.19992V0.800082C3.19992 0.358247 3.55803 0.000137197 3.99986 0.000137197L4.00013 0ZM2.40025 3.19992C1.95841 3.19992 1.60016 3.55803 1.60016 3.99986V4.79994H14.4002V3.99986C14.4002 3.55803 14.042 3.19992 13.6002 3.19992H2.40025Z" fill="black"/>
<path d="M11.8091 15.9991C11.5933 15.9908 11.3898 15.8954 11.2453 15.7348L9.80534 14.1348C9.50977 13.8064 9.53642 13.3007 9.86481 13.005C10.1932 12.7094 10.699 12.7361 10.9946 13.0645L11.8841 14.0528L14.6481 11.4204C14.9682 11.1157 15.4746 11.128 15.7791 11.448C16.0839 11.7679 16.0716 12.2743 15.7517 12.579L12.3917 15.7789C12.2352 15.928 12.025 16.0074 11.8091 15.9991H11.8091Z" fill="black"/>
</svg>
