<svg width="14" height="12" viewBox="0 0 14 12" fill="none" xmlns="http://www.w3.org/2000/svg">
<path d="M13 5.25H1V11.25H13V5.25Z" fill="#9E9E9E"/>
<path d="M13 12H1C0.801088 12 0.610322 11.921 0.46967 11.7803C0.329018 11.6397 0.25 11.4489 0.25 11.25V1.875C0.25 1.67609 0.329018 1.48532 0.46967 1.34467C0.610322 1.20402 0.801088 1.125 1 1.125H13C13.1989 1.125 13.3897 1.20402 13.5303 1.34467C13.671 1.48532 13.75 1.67609 13.75 1.875V11.25C13.75 11.4489 13.671 11.6397 13.5303 11.7803C13.3897 11.921 13.1989 12 13 12ZM1.75 10.5H12.25V2.625H1.75V10.5Z" fill="#9E9E9E"/>
<path d="M4.375 3.75C4.17609 3.75 3.98532 3.67098 3.84467 3.53033C3.70402 3.38968 3.625 3.19891 3.625 3V0.75C3.625 0.551088 3.70402 0.360322 3.84467 0.21967C3.98532 0.0790178 4.17609 0 4.375 0C4.57391 0 4.76468 0.0790178 4.90533 0.21967C5.04598 0.360322 5.125 0.551088 5.125 0.75V3C5.125 3.19891 5.04598 3.38968 4.90533 3.53033C4.76468 3.67098 4.57391 3.75 4.375 3.75Z" fill="#9E9E9E"/>
<path d="M9.625 3.75C9.42609 3.75 9.23532 3.67098 9.09467 3.53033C8.95402 3.38968 8.875 3.19891 8.875 3V0.75C8.875 0.551088 8.95402 0.360322 9.09467 0.21967C9.23532 0.0790178 9.42609 0 9.625 0C9.82391 0 10.0147 0.0790178 10.1553 0.21967C10.296 0.360322 10.375 0.551088 10.375 0.75V3C10.375 3.19891 10.296 3.38968 10.1553 3.53033C10.0147 3.67098 9.82391 3.75 9.625 3.75Z" fill="#9E9E9E"/>
<path d="M13 6H1C0.801088 6 0.610322 5.92098 0.46967 5.78033C0.329018 5.63968 0.25 5.44891 0.25 5.25C0.25 5.05109 0.329018 4.86032 0.46967 4.71967C0.610322 4.57902 0.801088 4.5 1 4.5H13C13.1989 4.5 13.3897 4.57902 13.5303 4.71967C13.671 4.86032 13.75 5.05109 13.75 5.25C13.75 5.44891 13.671 5.63968 13.5303 5.78033C13.3897 5.92098 13.1989 6 13 6Z" fill="#9E9E9E"/>
</svg>
