<svg width="56" height="56" viewBox="0 0 56 56" fill="none" xmlns="http://www.w3.org/2000/svg">
<circle cx="28" cy="28" r="28" fill="#FF5252"/>
<g clip-path="url(#clip0_7_446)">
<path d="M14.8614 31.7696C15.0541 31.866 15.5725 31.7731 16.4157 31.4907C16.6566 31.4266 16.994 31.3294 17.4276 31.2007C17.8614 31.0717 18.2572 30.9567 18.6146 30.8561C18.9723 30.7549 19.3116 30.6643 19.6326 30.5835C19.6888 30.5755 19.8594 30.5451 20.1449 30.4928C20.4301 30.4401 20.6589 30.3838 20.8319 30.3233C21.0044 30.2626 21.1471 30.1761 21.2594 30.0635C21.4199 29.9026 21.5057 29.5873 21.5174 29.1174C21.5287 28.6473 21.5003 28.1774 21.4312 27.7073C21.3622 27.2372 21.3258 26.7754 21.3211 26.3216C21.3166 25.8674 21.3868 25.568 21.5311 25.4234C21.6035 25.3508 21.7141 25.2804 21.8623 25.2118C22.0107 25.1435 22.1274 25.0954 22.2117 25.0664C22.2961 25.0386 22.4483 24.9983 22.6696 24.946C22.8909 24.8932 23.0132 24.8632 23.0373 24.8552C24.7484 24.3634 26.3913 24.1167 27.966 24.1147C29.5409 24.1134 31.1844 24.3565 32.8964 24.845C32.9205 24.853 33.0432 24.8829 33.2641 24.9349C33.4853 24.9869 33.6379 25.0268 33.7224 25.055C33.8068 25.083 33.9234 25.1311 34.072 25.1993C34.2206 25.2675 34.3312 25.3376 34.4036 25.4099C34.5483 25.5543 34.619 25.8536 34.6155 26.3077C34.6119 26.7615 34.5762 27.2237 34.5084 27.6936C34.4403 28.1637 34.4129 28.6337 34.4253 29.1037C34.4379 29.5738 34.5246 29.889 34.6854 30.0495C34.7979 30.1618 34.9408 30.2481 35.1135 30.3082C35.2865 30.3685 35.5154 30.4243 35.8008 30.4763C36.0862 30.5281 36.2569 30.558 36.3133 30.5661C36.6345 30.6461 36.974 30.7363 37.3318 30.8362C37.6896 30.9361 38.0854 31.0504 38.5195 31.1784C38.9533 31.3064 39.2909 31.4026 39.5321 31.4666C40.3758 31.747 40.8943 31.839 41.0869 31.7422C41.1672 31.7099 41.2638 31.6375 41.376 31.525C41.5929 31.3077 41.8356 30.9842 42.1042 30.5539C42.373 30.1237 42.5635 29.7641 42.6756 29.4746C42.9081 28.9039 42.8428 27.988 42.4801 26.727C42.1335 25.5624 41.59 24.6107 40.85 23.8723C40.633 23.6557 40.4079 23.4591 40.1745 23.2824C39.9413 23.1059 39.6598 22.9254 39.3301 22.7409C39.0005 22.5565 38.7511 22.4241 38.5825 22.3439C38.4139 22.2638 38.1084 22.1235 37.6662 21.923C37.2241 21.7225 36.9548 21.5984 36.8583 21.5503C35.7891 21.0451 34.7523 20.6766 33.7476 20.4446C32.0843 20.0524 30.1553 19.8574 27.9617 19.8596C25.7682 19.862 23.8399 20.0608 22.177 20.4564C21.173 20.6905 20.1367 21.0614 19.0684 21.5685C18.9721 21.617 18.7033 21.7418 18.2614 21.9427C17.8197 22.1442 17.5144 22.2851 17.3459 22.3656C17.1772 22.446 16.928 22.5789 16.5989 22.7638C16.2693 22.9491 15.9884 23.13 15.7554 23.3068C15.5228 23.4843 15.2978 23.6812 15.0812 23.8983C14.3428 24.6381 13.8014 25.5912 13.4571 26.7566C13.0969 28.0181 13.0338 28.9341 13.2677 29.5047C13.38 29.794 13.5715 30.153 13.8412 30.5827C14.1106 31.0125 14.354 31.3354 14.5713 31.5522C14.684 31.6652 14.7804 31.7372 14.8614 31.7696Z" fill="white"/>
</g>
<defs>
<clipPath id="clip0_7_446">
<rect width="24" height="24" fill="white" transform="translate(44.9409 27.9526) rotate(134.94)"/>
</clipPath>
</defs>
</svg>
