<svg width="14" height="10" viewBox="0 0 14 10" fill="none" xmlns="http://www.w3.org/2000/svg">
<g clip-path="url(#clip0_191_4311)">
<path d="M13.9719 3.77523C13.9719 3.44157 13.7015 3.17124 13.3681 3.17124H12.3998C12.1183 2.42884 11.6487 1.4652 11.3215 0.881167C11.079 0.448259 10.726 0.226667 10.1413 0.140444C9.43556 0.0368597 8.04579 0 6.98592 0C5.92606 0 4.53625 0.0368597 3.8305 0.140475C3.24585 0.226667 2.89285 0.448259 2.65034 0.881198C2.32309 1.46523 1.85354 2.42884 1.57197 3.17127H0.603868C0.270428 3.17127 0 3.44157 0 3.77523C0 4.10864 0.270428 4.3791 0.603868 4.3791H0.726208C0.550667 4.99503 0.12562 6.91626 0.587651 7.54479V9.24139C0.587651 9.66053 0.926878 10 1.34651 10H2.0431C2.46211 10 2.80196 9.66053 2.80196 9.24139C2.80196 9.21756 2.80196 9.13282 2.80196 8.87038C4.70746 8.87038 9.23963 8.87038 11.17 8.87038C11.17 9.18324 11.17 9.23464 11.17 9.24139C11.17 9.66053 11.5091 10 11.9289 10H12.6255C13.0445 10 13.3843 9.66053 13.3843 9.24139V7.54479C13.8457 6.91264 13.4216 4.99711 13.246 4.3791H13.3681C13.7015 4.3791 13.9719 4.10867 13.9719 3.77523ZM3.32322 1.25824C3.43226 1.06386 3.5528 0.9612 3.94281 0.903666C4.60796 0.805993 6.00052 0.7713 6.98592 0.7713C7.97132 0.7713 9.36388 0.805993 10.029 0.903666C10.419 0.9612 10.5396 1.06386 10.6486 1.25824C10.9268 1.755 11.2397 2.46137 11.4731 3.17127H2.49872C2.73217 2.46137 3.04506 1.755 3.32322 1.25824ZM2.55254 6.63592C2.17355 6.63592 1.8661 6.3291 1.8661 5.9501C1.8661 5.57098 2.17355 5.26367 2.55254 5.26367C2.93141 5.26367 3.23886 5.57098 3.23886 5.9501C3.23883 6.3291 2.93141 6.63592 2.55254 6.63592ZM9.32387 6.64004H4.64819C4.5019 6.64004 4.38343 6.52157 4.38343 6.3754C4.38343 6.22923 4.5019 6.11076 4.64819 6.11076H9.32387C9.47004 6.11076 9.58851 6.22923 9.58851 6.3754C9.58851 6.52157 9.47001 6.64004 9.32387 6.64004ZM9.32387 5.589H4.64819C4.5019 5.589 4.38343 5.47065 4.38343 5.32436C4.38343 5.17819 4.5019 5.05959 4.64819 5.05959H9.32387C9.47004 5.05959 9.58851 5.17819 9.58851 5.32436C9.58848 5.47065 9.47001 5.589 9.32387 5.589ZM11.6401 6.63592C11.2609 6.63592 10.9537 6.3291 10.9537 5.9501C10.9537 5.57098 11.2609 5.26367 11.6401 5.26367C12.0196 5.26367 12.3265 5.57098 12.3265 5.9501C12.3265 6.3291 12.0196 6.63592 11.6401 6.63592Z" fill="#9E9E9E"/>
</g>
<defs>
<clipPath id="clip0_191_4311">
<rect width="13.9719" height="10" fill="white"/>
</clipPath>
</defs>
</svg>
