<svg width="18" height="18" viewBox="0 0 18 18" fill="none" xmlns="http://www.w3.org/2000/svg">
<g opacity="0.5" clip-path="url(#clip0_205_2009)">
<path d="M17.591 1.22711C17.8169 1.00121 17.8169 0.634944 17.591 0.409038C17.3651 0.183133 16.9988 0.183133 16.7729 0.409038L9 8.18192L1.22711 0.409038C1.00121 0.183133 0.634944 0.183133 0.409038 0.409038C0.183133 0.634944 0.183133 1.00121 0.409038 1.22712L8.18192 9L0.409038 16.7729C0.183133 16.9988 0.183133 17.3651 0.409038 17.591C0.634944 17.8169 1.00121 17.8169 1.22712 17.591L9 9.81808L16.7729 17.591C16.9988 17.8169 17.3651 17.8169 17.591 17.591C17.8169 17.3651 17.8169 16.9988 17.591 16.7729L9.81808 9L17.591 1.22711Z" fill="black"/>
</g>
<defs>
<clipPath id="clip0_205_2009">
<rect width="18" height="18" fill="white"/>
</clipPath>
</defs>
</svg>
