<svg width="16" height="16" viewBox="0 0 16 16" fill="none" xmlns="http://www.w3.org/2000/svg">
<g clip-path="url(#clip0_205_1535)">
<path d="M15.6364 1.09077C15.8372 0.889965 15.8372 0.564395 15.6364 0.36359C15.4356 0.162785 15.11 0.162785 14.9092 0.36359L8 7.27282L1.09077 0.36359C0.889965 0.162785 0.564395 0.162785 0.36359 0.36359C0.162785 0.564395 0.162785 0.889964 0.36359 1.09077L7.27282 8L0.36359 14.9092C0.162785 15.11 0.162785 15.4356 0.36359 15.6364C0.564395 15.8372 0.889964 15.8372 1.09077 15.6364L8 8.72718L14.9092 15.6364C15.11 15.8372 15.4356 15.8372 15.6364 15.6364C15.8372 15.4356 15.8372 15.11 15.6364 14.9092L8.72718 8L15.6364 1.09077Z" fill="black"/>
</g>
<defs>
<clipPath id="clip0_205_1535">
<rect width="16" height="16" fill="white"/>
</clipPath>
</defs>
</svg>
