<svg width="50" height="50" viewBox="0 0 50 50" fill="none" xmlns="http://www.w3.org/2000/svg">
<g filter="url(#filter0_d_134_11945)">
<circle cx="25" cy="23" r="23" fill="white"/>
</g>
<g clip-path="url(#clip0_134_11945)">
<path d="M24.9998 32.8231C19.5833 32.8231 15.1769 28.4167 15.1769 23.0002C15.1769 17.5837 19.5833 13.1772 24.9998 13.1772C30.4163 13.1772 34.8227 17.5837 34.8227 23.0002C34.8227 28.4167 30.4163 32.8231 24.9998 32.8231ZM24.9998 15.0939C20.6403 15.0939 17.0935 18.6407 17.0935 23.0002C17.0935 27.3596 20.6403 30.9064 24.9998 30.9064C29.3593 30.9064 32.906 27.3596 32.906 23.0002C32.906 18.6407 29.3593 15.0939 24.9998 15.0939Z" fill="black"/>
<path d="M25.0001 16.7708C24.4711 16.7708 24.0417 16.3415 24.0417 15.8125V12.4583C24.0417 11.9293 24.4711 11.5 25.0001 11.5C25.5291 11.5 25.9584 11.9293 25.9584 12.4583V15.8125C25.9584 16.3415 25.5291 16.7708 25.0001 16.7708Z" fill="black"/>
<path d="M35.5417 23.9582H32.1876C31.6586 23.9582 31.2292 23.5288 31.2292 22.9998C31.2292 22.4708 31.6586 22.0415 32.1876 22.0415H35.5417C36.0707 22.0415 36.5001 22.4708 36.5001 22.9998C36.5001 23.5288 36.0707 23.9582 35.5417 23.9582Z" fill="black"/>
<path d="M25.0001 34.4998C24.4711 34.4998 24.0417 34.0705 24.0417 33.5415V30.1873C24.0417 29.6583 24.4711 29.229 25.0001 29.229C25.5291 29.229 25.9584 29.6583 25.9584 30.1873V33.5415C25.9584 34.0705 25.5291 34.4998 25.0001 34.4998Z" fill="black"/>
<path d="M17.8125 23.9582H14.4583C13.9293 23.9582 13.5 23.5288 13.5 22.9998C13.5 22.4708 13.9293 22.0415 14.4583 22.0415H17.8125C18.3415 22.0415 18.7708 22.4708 18.7708 22.9998C18.7708 23.5288 18.3415 23.9582 17.8125 23.9582Z" fill="black"/>
<path d="M25 25.875C23.4149 25.875 22.125 24.5851 22.125 23C22.125 21.4149 23.4149 20.125 25 20.125C26.5851 20.125 27.875 21.4149 27.875 23C27.875 24.5851 26.5851 25.875 25 25.875ZM25 22.0417C24.472 22.0417 24.0417 22.472 24.0417 23C24.0417 23.528 24.472 23.9583 25 23.9583C25.528 23.9583 25.9583 23.528 25.9583 23C25.9583 22.472 25.528 22.0417 25 22.0417Z" fill="black"/>
</g>
<defs>
<filter id="filter0_d_134_11945" x="0" y="0" width="50" height="50" filterUnits="userSpaceOnUse" color-interpolation-filters="sRGB">
<feFlood flood-opacity="0" result="BackgroundImageFix"/>
<feColorMatrix in="SourceAlpha" type="matrix" values="0 0 0 0 0 0 0 0 0 0 0 0 0 0 0 0 0 0 127 0" result="hardAlpha"/>
<feOffset dy="2"/>
<feGaussianBlur stdDeviation="1"/>
<feColorMatrix type="matrix" values="0 0 0 0 0 0 0 0 0 0 0 0 0 0 0 0 0 0 0.25 0"/>
<feBlend mode="normal" in2="BackgroundImageFix" result="effect1_dropShadow_134_11945"/>
<feBlend mode="normal" in="SourceGraphic" in2="effect1_dropShadow_134_11945" result="shape"/>
</filter>
<clipPath id="clip0_134_11945">
<rect width="23" height="23" fill="white" transform="translate(13.5 11.5)"/>
</clipPath>
</defs>
</svg>
