<svg width="19" height="22" viewBox="0 0 19 22" fill="none" xmlns="http://www.w3.org/2000/svg">
<path d="M9.68743 19.9584C8.31755 19.9584 7.09449 19.4347 6.05299 18.4011C3.90444 16.2709 2.92651 13.2563 2.92651 10.4274C2.92651 10.1173 3.17755 9.86597 3.48757 9.86597C3.7976 9.86597 4.04863 10.1173 4.04863 10.4274C4.04863 13.1137 5.00886 15.7849 6.8428 17.604C7.67652 18.4306 8.63937 18.8304 9.72348 18.8356C13.9904 18.8002 15.4265 13.3598 15.4265 10.4274C15.4265 10.1173 15.6775 9.86597 15.9876 9.86597C16.2976 9.86597 16.5486 10.1173 16.5486 10.4274C16.5486 13.8445 14.8825 19.9151 9.73266 19.9577C9.71758 19.9577 9.70251 19.9584 9.68743 19.9584Z" fill="black" stroke="black" stroke-width="0.2"/>
<path d="M3.48695 9.89331C3.23657 9.89331 3.00848 9.7242 2.94359 9.47054C2.8669 9.17002 3.04846 8.86458 3.34931 8.7879C7.57759 7.71133 11.876 7.71067 16.1253 8.7879C16.4261 8.86393 16.6077 9.16937 16.5316 9.46989C16.4556 9.77041 16.1449 9.95197 15.85 9.87594C11.7842 8.84558 7.67197 8.84558 3.62591 9.87594C3.57937 9.88774 3.53284 9.89331 3.48695 9.89331Z" fill="black" stroke="black" stroke-width="0.2"/>
<path d="M3.10738 7.33343C2.86355 7.33343 2.63939 7.17383 2.5686 6.92837C2.48208 6.63079 2.65316 6.31946 2.95073 6.23294C4.6988 5.72563 6.55895 5.41757 8.48072 5.31728C8.80779 5.29533 9.05423 5.53915 9.07062 5.84852C9.08701 6.15789 8.84908 6.42204 8.5397 6.4381C6.7038 6.53412 4.92886 6.82776 3.26403 7.31115C3.2116 7.32622 3.15916 7.33343 3.10738 7.33343ZM16.3677 7.33343C16.3166 7.33343 16.2648 7.32622 16.213 7.31148C14.5292 6.82809 12.7536 6.53412 10.9354 6.4381C10.626 6.42171 10.3881 6.15757 10.4045 5.8482C10.4208 5.53883 10.6935 5.29336 10.9944 5.31729C12.8978 5.41757 14.7573 5.72563 16.5224 6.23262C16.8206 6.31815 16.993 6.62916 16.9071 6.92706C16.8363 7.17318 16.6122 7.33343 16.3677 7.33343Z" fill="black" stroke="black" stroke-width="0.2"/>
<path d="M9.73724 12.3113C7.54937 12.3113 5.36149 11.8214 3.23391 10.8418C2.95207 10.712 2.82885 10.3787 2.95863 10.0972C3.08841 9.81605 3.41941 9.69184 3.70321 9.82195C7.65227 11.6405 11.8242 11.6398 15.7719 9.82195C16.0564 9.69315 16.3867 9.8167 16.5165 10.0972C16.6463 10.3787 16.5231 10.712 16.2412 10.8418C14.1137 11.8214 11.9258 12.3113 9.73724 12.3113Z" fill="black" stroke="black" stroke-width="0.2"/>
<path d="M9.9072 9.02271C8.82721 9.02271 7.94922 8.12524 7.94922 7.02252C7.94922 5.91981 8.82721 5.02271 9.9072 5.02271C10.9987 5.02271 11.8861 5.91981 11.8861 7.02252C11.8861 8.12524 10.9987 9.02271 9.9072 9.02271ZM9.9072 6.25852C9.50897 6.25852 9.18432 6.60121 9.18432 7.02252C9.18432 7.4442 9.50896 7.78688 9.9072 7.78688C10.3242 7.78688 10.651 7.45106 10.651 7.02252C10.651 6.59399 10.3242 6.25852 9.9072 6.25852Z" fill="black" stroke="black" stroke-width="0.2"/>
<path d="M3.10744 9.33333C2.95472 9.33333 2.802 9.27107 2.69123 9.1485C1.15421 7.45089 0.667873 5.70315 1.32266 4.22807C2.24553 2.14637 5.23108 1 9.7281 1C10.0381 1 10.2892 1.25136 10.2892 1.56139C10.2892 1.87142 10.0381 2.12278 9.7281 2.12278C5.76003 2.12278 3.07008 3.05581 2.34844 4.68328C1.88504 5.72806 2.30256 7.04649 3.52365 8.39539C3.73143 8.62513 3.71373 8.98005 3.48432 9.18815C3.37683 9.28516 3.24181 9.33333 3.10744 9.33333Z" fill="black" stroke="black" stroke-width="0.2"/>
<path d="M16.3677 9.33333C16.2333 9.33333 16.0983 9.28516 15.9908 9.18815C15.7614 8.98005 15.7437 8.62513 15.9515 8.39539C17.1719 7.04714 17.5895 5.7297 17.1261 4.68557C16.4038 3.05679 13.7073 2.12278 9.72805 2.12278C9.41802 2.12278 9.16699 1.87141 9.16699 1.56139C9.16699 1.25136 9.41802 1 9.72805 1C14.2362 1 17.2283 2.14736 18.1525 4.23036C18.8066 5.70479 18.3203 7.45155 16.7839 9.1485C16.6732 9.27107 16.5204 9.33333 16.3677 9.33333Z" fill="black" stroke="black" stroke-width="0.2"/>
<path d="M3.48694 10.8932C3.23459 10.8932 3.00453 10.7211 2.94226 10.4645L2.56211 8.90456C2.4887 8.60371 2.67353 8.29991 2.97438 8.2265C3.27458 8.15243 3.57936 8.33793 3.65277 8.6391L4.03293 10.1991C4.10634 10.4999 3.9215 10.8037 3.62065 10.8771C3.57608 10.8879 3.53086 10.8932 3.48694 10.8932Z" fill="black" stroke="black" stroke-width="0.2"/>
<path d="M15.9882 10.8932C15.9443 10.8932 15.8991 10.8879 15.8545 10.8771C15.5537 10.8037 15.3688 10.4999 15.4422 10.1991L15.8224 8.6391C15.8958 8.33793 16.1993 8.15244 16.5008 8.2265C16.8016 8.29991 16.9865 8.60371 16.9131 8.90456L16.5329 10.4645C16.4706 10.7211 16.2406 10.8932 15.9882 10.8932Z" fill="black" stroke="black" stroke-width="0.2"/>
</svg>
