<svg width="24" height="24" viewBox="0 0 24 24" fill="none" xmlns="http://www.w3.org/2000/svg">
<path d="M21.0001 3.62988H3.00006C2.37998 3.65526 1.79517 3.92514 1.37353 4.38051C0.951894 4.83588 0.727728 5.43969 0.750057 6.05988V17.8199C0.727728 18.4401 0.951894 19.0439 1.37353 19.4993C1.79517 19.9546 2.37998 20.2245 3.00006 20.2499H21.0001C21.6201 20.2245 22.2049 19.9546 22.6266 19.4993C23.0482 19.0439 23.2724 18.4401 23.2501 17.8199V6.05988C23.2724 5.43969 23.0482 4.83588 22.6266 4.38051C22.2049 3.92514 21.6201 3.65526 21.0001 3.62988V3.62988ZM3.00006 5.12988H21.0001C21.2217 5.1563 21.4243 5.26837 21.5644 5.44215C21.7046 5.61593 21.7712 5.83764 21.7501 6.05988V7.74738H2.33256H2.25006V6.05988C2.22891 5.83764 2.29552 5.61593 2.43567 5.44215C2.57581 5.26837 2.77837 5.1563 3.00006 5.12988V5.12988ZM21.7501 17.8199C21.7712 18.0421 21.7046 18.2638 21.5644 18.4376C21.4243 18.6114 21.2217 18.7235 21.0001 18.7499H3.00006C2.77837 18.7235 2.57581 18.6114 2.43567 18.4376C2.29552 18.2638 2.22891 18.0421 2.25006 17.8199V9.23238H2.33256H21.7501V17.8199Z" fill="#666666"/>
<path d="M5.25 14.25H14.25C14.4489 14.25 14.6397 14.171 14.7803 14.0303C14.921 13.8897 15 13.6989 15 13.5C15 13.3011 14.921 13.1103 14.7803 12.9697C14.6397 12.829 14.4489 12.75 14.25 12.75H5.25C5.05109 12.75 4.86032 12.829 4.71967 12.9697C4.57902 13.1103 4.5 13.3011 4.5 13.5C4.5 13.6989 4.57902 13.8897 4.71967 14.0303C4.86032 14.171 5.05109 14.25 5.25 14.25Z" fill="#666666"/>
<path d="M17.25 14.25H18.75C18.9489 14.25 19.1397 14.171 19.2803 14.0303C19.421 13.8897 19.5 13.6989 19.5 13.5C19.5 13.3011 19.421 13.1103 19.2803 12.9697C19.1397 12.829 18.9489 12.75 18.75 12.75H17.25C17.0511 12.75 16.8603 12.829 16.7197 12.9697C16.579 13.1103 16.5 13.3011 16.5 13.5C16.5 13.6989 16.579 13.8897 16.7197 14.0303C16.8603 14.171 17.0511 14.25 17.25 14.25Z" fill="#666666"/>
</svg>
