<svg width="24" height="24" viewBox="0 0 24 24" fill="none" xmlns="http://www.w3.org/2000/svg">
<path d="M21.146 8.57594L13.596 2.44094C12.671 1.68994 11.329 1.68994 10.404 2.44094L2.85496 8.57494C2.58996 8.78994 2.43896 9.10794 2.43896 9.44794V20.9909C2.43896 21.6109 2.94396 22.1209 3.56396 22.1209H8.62597C9.24597 22.1209 9.75097 21.6109 9.75097 20.9909V13.6849H14.25V20.9909C14.25 21.6109 14.755 22.1209 15.375 22.1209H20.437C21.057 22.1209 21.562 21.6109 21.562 20.9909V9.44794C21.561 9.10794 21.41 8.78994 21.146 8.57594ZM20.436 20.9969H15.374V13.6799C15.374 13.0599 14.869 12.5609 14.249 12.5609H9.74996C9.12996 12.5609 8.62496 13.0599 8.62496 13.6799V20.9969H3.56396V9.44794L11.114 3.31394C11.627 2.89594 12.374 2.89694 12.887 3.31394L20.437 9.44794V20.9969H20.436Z" fill="black"/>
</svg>
