<svg width="34" height="34" viewBox="0 0 34 34" fill="none" xmlns="http://www.w3.org/2000/svg">
<g id="image icon large">
<path fill-rule="evenodd" clip-rule="evenodd" d="M28.342 3.02535H6.06335C4.3884 3.02535 3.02535 4.38839 3.02535 6.06334V24.8848L9.39806 18.5121C9.79402 18.1161 10.434 18.1161 10.83 18.5121L15.1774 22.8594L22.5627 15.4741C22.9587 15.0781 23.5987 15.0781 23.9946 15.4741L31.38 22.8594V6.06334C31.38 4.38839 30.017 3.02535 28.342 3.02535ZM6.06335 31.3801H28.342C30.017 31.3801 31.38 30.017 31.38 28.3421V25.7233L23.2787 17.622L15.8933 25.0074C15.4974 25.4033 14.8574 25.4033 14.4614 25.0074L10.114 20.66L3.02535 27.7487V28.3421C3.02535 30.017 4.3884 31.3801 6.06335 31.3801ZM28.342 33.4053H6.06333C3.27141 33.4053 1 31.1339 1 28.342V6.06333C1 3.27141 3.27141 1 6.06333 1H28.342C31.1339 1 33.4053 3.27141 33.4053 6.06333V28.342C33.4053 31.1339 31.1339 33.4053 28.342 33.4053ZM17.2027 11.1265C17.2027 9.45158 15.8397 8.08853 14.1647 8.08853C12.4898 8.08853 11.1267 9.45158 11.1267 11.1265C11.1267 12.8015 12.4898 14.1645 14.1647 14.1645C15.8397 14.1645 17.2027 12.8015 17.2027 11.1265ZM19.228 11.1267C19.228 13.9186 16.9566 16.19 14.1647 16.19C11.3727 16.19 9.10133 13.9186 9.10133 11.1267C9.10133 8.33474 11.3727 6.06333 14.1647 6.06333C16.9566 6.06333 19.228 8.33474 19.228 11.1267Z" fill="#757575"/>
<path d="M3.02535 24.8848H2.77535V25.4883L3.20213 25.0615L3.02535 24.8848ZM15.1774 22.8594L15.0006 23.0362L15.1774 23.213L15.3541 23.0362L15.1774 22.8594ZM22.5627 15.4741L22.7395 15.6508L22.5627 15.4741ZM23.9946 15.4741L23.8179 15.6508L23.9946 15.4741ZM31.38 22.8594L31.2032 23.0362L31.63 23.463V22.8594H31.38ZM31.38 25.7233H31.63V25.6198L31.5568 25.5465L31.38 25.7233ZM23.2787 17.622L23.4555 17.4452L23.2787 17.2684L23.1019 17.4452L23.2787 17.622ZM10.114 20.66L10.2908 20.4832L10.114 20.3064L9.93724 20.4832L10.114 20.66ZM3.02535 27.7487L2.84858 27.5719L2.77535 27.6451V27.7487H3.02535ZM6.06335 3.27535H28.342V2.77535H6.06335V3.27535ZM3.27535 6.06334C3.27535 4.52647 4.52647 3.27535 6.06335 3.27535V2.77535C4.25033 2.77535 2.77535 4.25032 2.77535 6.06334H3.27535ZM3.27535 24.8848V6.06334H2.77535V24.8848H3.27535ZM9.22129 18.3353L2.84858 24.708L3.20213 25.0615L9.57484 18.6888L9.22129 18.3353ZM11.0068 18.3353C10.5132 17.8417 9.71487 17.8417 9.22129 18.3353L9.57484 18.6888C9.87316 18.3905 10.3549 18.3905 10.6532 18.6888L11.0068 18.3353ZM15.3541 22.6827L11.0068 18.3353L10.6532 18.6888L15.0006 23.0362L15.3541 22.6827ZM22.386 15.2973L15.0006 22.6827L15.3541 23.0362L22.7395 15.6508L22.386 15.2973ZM24.1714 15.2973C23.6778 14.8037 22.8795 14.8037 22.386 15.2973L22.7395 15.6508C23.0378 15.3525 23.5195 15.3525 23.8179 15.6508L24.1714 15.2973ZM31.5568 22.6827L24.1714 15.2973L23.8179 15.6508L31.2032 23.0362L31.5568 22.6827ZM31.13 6.06334V22.8594H31.63V6.06334H31.13ZM28.342 3.27535C29.8789 3.27535 31.13 4.52647 31.13 6.06334H31.63C31.63 4.25032 30.155 2.77535 28.342 2.77535V3.27535ZM28.342 31.1301H6.06335V31.6301H28.342V31.1301ZM31.13 28.3421C31.13 29.879 29.8789 31.1301 28.342 31.1301V31.6301C30.155 31.6301 31.63 30.1551 31.63 28.3421H31.13ZM31.13 25.7233V28.3421H31.63V25.7233H31.13ZM23.1019 17.7988L31.2032 25.9001L31.5568 25.5465L23.4555 17.4452L23.1019 17.7988ZM16.0701 25.1841L23.4555 17.7988L23.1019 17.4452L15.7165 24.8306L16.0701 25.1841ZM14.2846 25.1841C14.7782 25.6777 15.5765 25.6777 16.0701 25.1841L15.7165 24.8306C15.4182 25.1289 14.9365 25.1289 14.6382 24.8306L14.2846 25.1841ZM9.93724 20.8368L14.2846 25.1841L14.6382 24.8306L10.2908 20.4832L9.93724 20.8368ZM3.20213 27.9254L10.2908 20.8368L9.93724 20.4832L2.84858 27.5719L3.20213 27.9254ZM3.27535 28.3421V27.7487H2.77535V28.3421H3.27535ZM6.06335 31.1301C4.52647 31.1301 3.27535 29.879 3.27535 28.3421H2.77535C2.77535 30.1551 4.25033 31.6301 6.06335 31.6301V31.1301ZM6.06333 33.6553H28.342V33.1553H6.06333V33.6553ZM0.75 28.342C0.75 31.272 3.13334 33.6553 6.06333 33.6553V33.1553C3.40948 33.1553 1.25 30.9959 1.25 28.342H0.75ZM0.75 6.06333V28.342H1.25V6.06333H0.75ZM6.06333 0.75C3.13334 0.75 0.75 3.13334 0.75 6.06333H1.25C1.25 3.40948 3.40948 1.25 6.06333 1.25V0.75ZM28.342 0.75H6.06333V1.25H28.342V0.75ZM33.6553 6.06333C33.6553 3.13334 31.272 0.75 28.342 0.75V1.25C30.9959 1.25 33.1553 3.40948 33.1553 6.06333H33.6553ZM33.6553 28.342V6.06333H33.1553V28.342H33.6553ZM28.342 33.6553C31.272 33.6553 33.6553 31.272 33.6553 28.342H33.1553C33.1553 30.9959 30.9959 33.1553 28.342 33.1553V33.6553ZM14.1647 8.33853C15.7016 8.33853 16.9527 9.58965 16.9527 11.1265H17.4527C17.4527 9.31351 15.9777 7.83853 14.1647 7.83853V8.33853ZM11.3767 11.1265C11.3767 9.58965 12.6278 8.33853 14.1647 8.33853V7.83853C12.3517 7.83853 10.8767 9.31351 10.8767 11.1265H11.3767ZM14.1647 13.9145C12.6278 13.9145 11.3767 12.6634 11.3767 11.1265H10.8767C10.8767 12.9396 12.3517 14.4145 14.1647 14.4145V13.9145ZM16.9527 11.1265C16.9527 12.6634 15.7016 13.9145 14.1647 13.9145V14.4145C15.9777 14.4145 17.4527 12.9396 17.4527 11.1265H16.9527ZM14.1647 16.44C17.0947 16.44 19.478 14.0567 19.478 11.1267H18.978C18.978 13.7805 16.8185 15.94 14.1647 15.94V16.44ZM8.85133 11.1267C8.85133 14.0567 11.2347 16.44 14.1647 16.44V15.94C11.5108 15.94 9.35133 13.7805 9.35133 11.1267H8.85133ZM14.1647 5.81333C11.2347 5.81333 8.85133 8.19667 8.85133 11.1267H9.35133C9.35133 8.47282 11.5108 6.31333 14.1647 6.31333V5.81333ZM19.478 11.1267C19.478 8.19667 17.0947 5.81333 14.1647 5.81333V6.31333C16.8185 6.31333 18.978 8.47282 18.978 11.1267H19.478Z" fill="#757575"/>
</g>
</svg>
