<svg width="24" height="24" viewBox="0 0 24 24" fill="none" xmlns="http://www.w3.org/2000/svg">
<path d="M21.1429 5.28564C21.6952 5.28564 22.1429 5.73336 22.1429 6.28564V18.2856C22.1429 18.8379 21.6952 19.2856 21.1429 19.2856H2.85718C2.30489 19.2856 1.85718 18.8379 1.85718 18.2856V6.28564C1.85718 5.73336 2.30489 5.28564 2.85718 5.28564H21.1429ZM21.2857 6.70564L13.077 14.432C12.4983 14.9767 11.6095 15.0004 11.0038 14.503L10.923 14.432L2.71432 6.70679V17.7674L7.42199 12.5463C7.58048 12.3705 7.85148 12.3565 8.02727 12.515C8.18708 12.659 8.21321 12.8961 8.09756 13.0701L8.0586 13.1202L3.27203 18.4285H20.7275L15.9415 13.1202C15.783 12.9444 15.797 12.6735 15.9728 12.515C16.1326 12.3709 16.3711 12.3694 16.5322 12.5024L16.5781 12.5463L21.2857 17.7679V6.70564ZM20.6326 6.14279H3.36632L11.5105 13.8078C11.7659 14.0482 12.154 14.0653 12.4284 13.8593L12.4896 13.8078L20.6326 6.14279Z" fill="black" stroke="black" stroke-width="0.3"/>
</svg>
