<svg width="119" height="113" viewBox="0 0 119 113" fill="none" xmlns="http://www.w3.org/2000/svg">
<path d="M110.76 63.1881L106.96 63.3581C106.96 63.2281 106.98 63.1011 106.984 62.9631C107.057 62.8822 107.107 62.7824 107.126 62.675C107.146 62.5675 107.135 62.4567 107.095 62.3551C106.345 59.7321 106.933 56.8851 105.776 54.3221C105.738 54.3026 105.698 54.2856 105.658 54.2711C105.758 54.1091 105.858 53.9391 105.946 53.7651C105.982 53.7331 106.025 53.7061 106.061 53.6701C106.046 53.8759 106.091 54.0818 106.191 54.2621H108.166C112.392 54.2621 115.303 51.7461 115.413 48.0061C115.513 44.6491 112.313 41.9751 108.185 41.9671C103.051 41.9671 97.9401 42.0341 92.8171 41.9671C88.0221 41.8801 85.5731 37.6221 87.6831 33.3331C88.8281 30.9631 90.8431 30.3231 93.2121 30.1061C94.9501 29.9441 96.3721 29.1781 96.5341 27.2541C96.6721 25.7541 94.9541 24.4541 93.0431 24.4141C92.4594 24.3666 91.8728 24.3666 91.2891 24.4141C88.0621 24.8841 85.4041 23.6601 82.7581 21.9491C75.7551 17.4171 67.8831 15.5691 59.7121 15.2211C50.9739 14.6919 42.2811 16.8307 34.7861 21.3541C31.3687 23.4433 27.3608 24.3548 23.3761 23.9491C21.8412 23.8041 20.2944 24.0447 18.8761 24.6491C18.0495 25.072 17.3323 25.681 16.781 26.4281C16.2297 27.1752 15.8593 28.0401 15.6989 28.9546C15.5386 29.8692 15.5927 30.8085 15.857 31.6985C16.1213 32.5886 16.5886 33.4053 17.2221 34.0841C17.7351 34.6411 19.0701 34.9021 18.1221 36.3001C15.3033 40.2945 13.1582 44.7239 11.7721 49.4121L10.1571 49.5301C7.08007 49.7831 4.44207 51.9751 4.44207 55.2451C4.46247 56.6541 4.99458 58.0075 5.93918 59.0531C6.88379 60.0988 8.17642 60.7652 9.57607 60.9281V61.2281C9.46132 64.1957 9.58673 67.1677 9.95107 70.1151C9.75799 73.0191 10.0679 75.9346 10.8671 78.7331C10.7741 78.7923 10.6765 78.8438 10.5751 78.8871C9.46808 78.2762 8.21957 77.9681 6.95548 77.9937C5.69138 78.0193 4.45639 78.3779 3.37507 79.0331C-0.664925 81.5331 -1.30493 87.4931 2.69607 90.3641C5.54807 92.4141 9.95907 92.4491 13.3321 92.7931C14.8174 92.9431 16.3037 93.0471 17.7911 93.1051C18.0804 93.1446 18.372 93.1657 18.6641 93.1681C18.8198 93.1721 18.9756 93.1641 19.1301 93.1441H21.0691C22.0801 97.0381 24.2691 100.905 27.4401 103.018H26.8121C24.7461 103.046 23.1471 104.361 23.1941 105.98C23.2411 107.599 24.6471 108.705 26.7491 108.717C29.8221 108.737 32.8981 108.776 35.9711 108.717C37.7171 108.682 39.4531 108.988 41.0821 109.617C48.8803 112.597 57.3256 113.472 65.5691 112.153C73.5691 110.834 81.0631 108.089 87.4141 102.793C88.7022 101.692 90.368 101.136 92.0591 101.241C95.4241 101.367 98.7931 101.241 102.159 101.288C103.336 101.344 104.487 100.931 105.359 100.139C109.044 96.8391 108.021 91.8451 103.195 89.5581C103.084 89.2531 102.952 88.9561 102.8 88.6691L102.01 87.0891C102.181 86.9016 102.341 86.7039 102.488 86.4971C105.05 83.0379 106.815 79.0552 107.658 74.8341C108.685 74.7948 109.71 74.7198 110.735 74.6091C113.804 74.2811 116.45 72.2391 116.45 68.8981C116.445 67.3889 115.844 65.9427 114.779 64.8736C113.713 63.8046 112.269 63.1989 110.76 63.1881ZM85.3761 81.7511C85.3131 81.7511 85.2851 81.7151 85.3051 81.6601C85.1191 82.0911 85.4351 80.4161 85.3761 81.7671V81.7511Z" fill="#C1A5BD" fill-opacity="0.18"/>
<path d="M80 15H36C32.6863 15 30 17.6863 30 21V99C30 102.314 32.6863 105 36 105H80C83.3137 105 86 102.314 86 99V21C86 17.6863 83.3137 15 80 15Z" fill="white"/>
<path d="M80 15.5H36C32.9624 15.5 30.5 17.9624 30.5 21V99C30.5 102.038 32.9624 104.5 36 104.5H80C83.0376 104.5 85.5 102.038 85.5 99V21C85.5 17.9624 83.0376 15.5 80 15.5Z" stroke="#854C7C" stroke-opacity="0.2" stroke-width="2"/>
<path d="M51 21.3477H65.609" stroke="#854C7C" stroke-opacity="0.2" stroke-width="2" stroke-linecap="round"/>
<path d="M40 64H75" stroke="#854C7C" stroke-opacity="0.2" stroke-width="2" stroke-linecap="round"/>
<path d="M44 73H70" stroke="#854C7C" stroke-opacity="0.2" stroke-width="2" stroke-linecap="round"/>
<path d="M19.0385 61.1621C19.0855 61.2978 19.0964 61.4433 19.0704 61.5845C19.0443 61.7257 18.9821 61.8578 18.8898 61.9678C18.7976 62.0778 18.6783 62.162 18.5438 62.2122C18.4093 62.2625 18.2641 62.277 18.1223 62.2544L16.2414 61.923L14.3587 61.587C14.2155 61.5627 14.0811 61.5012 13.969 61.4088C13.8569 61.3163 13.771 61.1961 13.7199 61.0601C13.6687 60.9241 13.6541 60.777 13.6776 60.6336C13.701 60.4902 13.7617 60.3555 13.8534 60.2428L15.0832 58.7795L16.3129 57.3162C16.4069 57.2048 16.5285 57.1201 16.6655 57.0705C16.8025 57.021 16.9501 57.0083 17.0936 57.0338C17.2371 57.0593 17.3713 57.1221 17.4828 57.2159C17.5944 57.3096 17.6793 57.4311 17.7291 57.568L18.4008 59.3549L19.0385 61.1621Z" fill="#854C7C"/>
<path d="M80.9831 7.05739C80.819 6.92655 80.6947 6.75106 80.6224 6.54799C80.55 6.34493 80.5321 6.12124 80.5703 5.89873C80.6085 5.67622 80.7015 5.4625 80.8403 5.27837C80.9791 5.09425 81.159 4.94602 81.3623 4.84814L84.0834 3.58962L86.8103 2.33546C87.0169 2.23841 87.2398 2.19657 87.4568 2.21413C87.6739 2.23168 87.8775 2.30804 88.0473 2.43553C88.2171 2.56302 88.3473 2.73719 88.4247 2.94072C88.5022 3.14424 88.5242 3.36998 88.4887 3.59541L87.9777 6.55717L87.4667 9.51892C87.4273 9.74466 87.3315 9.96115 87.1889 10.1467C87.0463 10.3322 86.8619 10.4802 86.6542 10.5759C86.4465 10.6716 86.2228 10.7116 86.0055 10.6919C85.7882 10.6722 85.5849 10.5934 85.4161 10.4636L83.1849 8.78859L80.9831 7.05739Z" fill="#854C7C"/>
<path d="M5.5 37C6.88071 37 8 35.8807 8 34.5C8 33.1193 6.88071 32 5.5 32C4.11929 32 3 33.1193 3 34.5C3 35.8807 4.11929 37 5.5 37Z" stroke="#8A5080" stroke-width="2" stroke-miterlimit="10"/>
<path d="M96.5 59C97.8807 59 99 57.8807 99 56.5C99 55.1193 97.8807 54 96.5 54C95.1193 54 94 55.1193 94 56.5C94 57.8807 95.1193 59 96.5 59Z" stroke="#854C7C" stroke-width="0.5" stroke-miterlimit="10"/>
<path d="M27.7201 13.5317L24.9001 13.2398L25.1835 10.5015C25.2157 10.3875 25.2226 10.2679 25.2037 10.151C25.1848 10.0341 25.1405 9.92279 25.074 9.82481C25.0075 9.72684 24.9204 9.64458 24.8188 9.58382C24.7172 9.52306 24.6035 9.48525 24.4857 9.47306C24.3679 9.46087 24.2489 9.47459 24.137 9.51325C24.0251 9.55191 23.923 9.61458 23.8378 9.69687C23.7527 9.77915 23.6866 9.87907 23.6441 9.9896C23.6016 10.1001 23.5839 10.2186 23.592 10.3367L23.3086 13.0751L20.4797 12.7823C20.3658 12.7501 20.2462 12.7433 20.1293 12.7622C20.0124 12.7811 19.9011 12.8254 19.8031 12.8918C19.7051 12.9583 19.6229 13.0454 19.5621 13.1471C19.5013 13.2487 19.4635 13.3624 19.4513 13.4802C19.4392 13.5979 19.4529 13.7169 19.4915 13.8289C19.5302 13.9408 19.5929 14.0429 19.6751 14.128C19.7574 14.2132 19.8573 14.2793 19.9679 14.3218C20.0784 14.3642 20.1969 14.382 20.315 14.3738L23.13 14.6652L22.8304 17.5597C22.8436 17.7505 22.9237 17.9305 23.0566 18.068C23.1895 18.2055 23.3666 18.2917 23.5569 18.3114C23.7471 18.3311 23.9382 18.283 24.0964 18.1756C24.2546 18.0682 24.3699 17.9085 24.4219 17.7244L24.7194 14.8498L27.5374 15.1414C27.7281 15.1283 27.9082 15.0482 28.0457 14.9153C28.1832 14.7824 28.2694 14.6052 28.2891 14.415C28.3088 14.2247 28.2607 14.0337 28.1533 13.8754C28.0459 13.7172 27.8861 13.6019 27.7021 13.5499L27.7201 13.5317Z" fill="#854C7C"/>
<path d="M99.5814 74.2042L98.2362 74.3582L98.087 73.0558C98.0656 72.9634 98.0109 72.8822 97.9335 72.8276C97.8561 72.773 97.7612 72.7487 97.6671 72.7595C97.5729 72.7703 97.486 72.8153 97.4229 72.8861C97.3598 72.9568 97.325 73.0483 97.325 73.1431L97.4742 74.4455L96.1379 74.5986C96.0456 74.62 95.9644 74.6746 95.9097 74.7521C95.8551 74.8295 95.8308 74.9244 95.8416 75.0185C95.8524 75.1127 95.8975 75.1996 95.9682 75.2627C96.0389 75.3258 96.1304 75.3606 96.2252 75.3606L97.5614 75.2075L97.7179 76.5736C97.7179 76.628 97.7294 76.6818 97.7517 76.7314C97.7739 76.7811 97.8064 76.8254 97.847 76.8616C97.8876 76.8978 97.9354 76.925 97.9872 76.9415C98.0391 76.9579 98.0938 76.9632 98.1478 76.9571C98.2019 76.9509 98.254 76.9333 98.3008 76.9056C98.3476 76.8778 98.388 76.8405 98.4193 76.7961C98.4507 76.7516 98.4723 76.7011 98.4827 76.6477C98.4932 76.5943 98.4922 76.5393 98.4799 76.4863L98.3235 75.1203L99.6597 74.9672C99.7521 74.9458 99.8333 74.8912 99.8879 74.8137C99.9425 74.7363 99.9668 74.6414 99.956 74.5473C99.9452 74.4531 99.9002 74.3662 99.8294 74.3031C99.7587 74.24 99.6672 74.2052 99.5724 74.2052L99.5814 74.2042Z" fill="#B2B2B2"/>
<path d="M62.917 48H52.917C52.3647 48 51.917 48.4477 51.917 49C51.917 49.5523 52.3647 50 52.917 50H62.917C63.4693 50 63.917 49.5523 63.917 49C63.917 48.4477 63.4693 48 62.917 48Z" fill="white"/>
<path d="M82.769 39.5L82.6805 39.3789L82.6805 39.3789L82.6804 39.379L82.68 39.3793L82.6785 39.3804L82.6726 39.3847L82.6499 39.4012L82.5672 39.4613C82.4978 39.5115 82.4032 39.5795 82.3024 39.6511C82.0972 39.7968 81.8773 39.9489 81.7854 40.0004L76.3918 43.0222C75.8354 43.3339 75.1321 42.9009 75.1503 42.2202C75.1504 42.2198 75.1504 42.2195 75.1504 42.2191L75.4189 36.0065L75.419 36.0065L75.419 36L75.4189 35.452V35.452V25C75.4189 23.426 76.6949 22.15 78.2689 22.15H115.269C116.843 22.15 118.119 23.426 118.119 25V36.6581C118.119 38.232 116.843 39.5079 115.269 39.5081C115.269 39.5081 115.269 39.5081 115.269 39.5081L82.7698 39.35L82.7204 39.3498L82.6805 39.3789L82.769 39.5Z" fill="#854C7C" stroke="#854C7C" stroke-width="0.3"/>
<path d="M91.1284 30.2026L88.3188 30.582L90.3286 32.7456L88.4624 34.0273L87.0576 31.4229L85.6528 34.0273L83.7764 32.7456L85.7964 30.582L82.9868 30.2026L83.7148 28.1313L86.2988 29.2388L85.8579 26.2959H88.2573L87.8164 29.2388L90.3799 28.1313L91.1284 30.2026ZM100.895 30.2026L98.0855 30.582L100.095 32.7456L98.229 34.0273L96.8243 31.4229L95.4195 34.0273L93.543 32.7456L95.563 30.582L92.7535 30.2026L93.4815 28.1313L96.0655 29.2388L95.6246 26.2959H98.024L97.583 29.2388L100.147 28.1313L100.895 30.2026ZM110.662 30.2026L107.852 30.582L109.862 32.7456L107.996 34.0273L106.591 31.4229L105.186 34.0273L103.31 32.7456L105.33 30.582L102.52 30.2026L103.248 28.1313L105.832 29.2388L105.391 26.2959H107.791L107.35 29.2388L109.913 28.1313L110.662 30.2026Z" fill="white"/>
</svg>
