<svg width="20" height="20" viewBox="0 0 20 20" fill="none" xmlns="http://www.w3.org/2000/svg">
<g clip-path="url(#clip0_205_2223)">
<path d="M9.99996 20C12.1043 19.998 14.1439 19.272 15.7762 17.9439C17.4086 16.6158 18.5343 14.7665 18.9643 12.7066C19.3943 10.6466 19.1025 8.50145 18.1378 6.63122C17.1732 4.761 15.5944 3.27962 13.6666 2.43584C13.5662 2.39139 13.458 2.36722 13.3482 2.36472C13.2385 2.36222 13.1293 2.38144 13.027 2.42127C12.9246 2.4611 12.8312 2.52077 12.752 2.59683C12.6728 2.6729 12.6094 2.76386 12.5655 2.8645C12.5216 2.96513 12.498 3.07346 12.4961 3.18325C12.4941 3.29303 12.5139 3.40212 12.5543 3.50423C12.5947 3.60635 12.6548 3.69947 12.7313 3.77826C12.8078 3.85705 12.8991 3.91995 13 3.96334C14.5792 4.65256 15.8729 5.86452 16.6636 7.39543C17.4543 8.92634 17.6938 10.6828 17.3418 12.3695C16.9897 14.0562 16.0676 15.5703 14.7306 16.6571C13.3935 17.7439 11.723 18.3372 9.99996 18.3372C8.2769 18.3372 6.6064 17.7439 5.26933 16.6571C3.93227 15.5703 3.01019 14.0562 2.65816 12.3695C2.30612 10.6828 2.54559 8.92634 3.33631 7.39543C4.12702 5.86452 5.42075 4.65256 6.99995 3.96334C7.10082 3.91995 7.19212 3.85705 7.2686 3.77826C7.34508 3.69947 7.40523 3.60635 7.44561 3.50423C7.48598 3.40212 7.50577 3.29303 7.50385 3.18325C7.50193 3.07346 7.47833 2.96513 7.43441 2.8645C7.39048 2.76386 7.32711 2.6729 7.24791 2.59683C7.16872 2.52077 7.07528 2.4611 6.97296 2.42127C6.87063 2.38144 6.76144 2.36222 6.65167 2.36472C6.54189 2.36722 6.43369 2.39139 6.33329 2.43584C4.4055 3.27962 2.82673 4.761 1.86207 6.63122C0.897402 8.50145 0.605586 10.6466 1.03562 12.7066C1.46565 14.7665 2.59134 16.6158 4.22368 17.9439C5.85602 19.272 7.8956 19.998 9.99996 20Z" fill="black"/>
<path d="M9.99996 8.33333C10.221 8.33333 10.4329 8.24554 10.5892 8.08926C10.7455 7.93297 10.8333 7.72101 10.8333 7.5V0.833333C10.8333 0.61232 10.7455 0.400358 10.5892 0.244078C10.4329 0.0877974 10.221 0 9.99996 0C9.77895 0 9.56698 0.0877974 9.4107 0.244078C9.25442 0.400358 9.16663 0.61232 9.16663 0.833333V7.5C9.16663 7.72101 9.25442 7.93297 9.4107 8.08926C9.56698 8.24554 9.77895 8.33333 9.99996 8.33333Z" fill="black"/>
</g>
<defs>
<clipPath id="clip0_205_2223">
<rect width="20" height="20" fill="white"/>
</clipPath>
</defs>
</svg>
