<svg width="90" height="90" viewBox="0 0 90 90" fill="none" xmlns="http://www.w3.org/2000/svg">
<g filter="url(#filter0_bd_191_3323)">
<circle cx="45" cy="30" r="25" fill="white"/>
<circle cx="45" cy="30" r="24" stroke="white" stroke-width="2"/>
</g>
<path d="M40.24 20H38.34C36.15 20 35 21.15 35 23.33V25.23C35 27.41 36.15 28.56 38.33 28.56H40.23C42.41 28.56 43.56 27.41 43.56 25.23V23.33C43.57 21.15 42.42 20 40.24 20Z" fill="#78456F"/>
<path opacity="0.4" d="M51.6699 20H49.7699C47.5899 20 46.4399 21.15 46.4399 23.33V25.23C46.4399 27.41 47.5899 28.56 49.7699 28.56H51.6699C53.8499 28.56 54.9999 27.41 54.9999 25.23V23.33C54.9999 21.15 53.8499 20 51.6699 20Z" fill="#78456F"/>
<path d="M51.6699 31.4301H49.7699C47.5899 31.4301 46.4399 32.5801 46.4399 34.7601V36.6601C46.4399 38.8401 47.5899 39.9901 49.7699 39.9901H51.6699C53.8499 39.9901 54.9999 38.8401 54.9999 36.6601V34.7601C54.9999 32.5801 53.8499 31.4301 51.6699 31.4301Z" fill="#78456F"/>
<path opacity="0.4" d="M40.24 31.4301H38.34C36.15 31.4301 35 32.5801 35 34.7601V36.6601C35 38.8501 36.15 40.0001 38.33 40.0001H40.23C42.41 40.0001 43.56 38.8501 43.56 36.6701V34.7701C43.57 32.5801 42.42 31.4301 40.24 31.4301Z" fill="#78456F"/>
<defs>
<filter id="filter0_bd_191_3323" x="-7.18282" y="-22.1828" width="104.366" height="112.183" filterUnits="userSpaceOnUse" color-interpolation-filters="sRGB">
<feFlood flood-opacity="0" result="BackgroundImageFix"/>
<feGaussianBlur in="BackgroundImageFix" stdDeviation="13.5914"/>
<feComposite in2="SourceAlpha" operator="in" result="effect1_backgroundBlur_191_3323"/>
<feColorMatrix in="SourceAlpha" type="matrix" values="0 0 0 0 0 0 0 0 0 0 0 0 0 0 0 0 0 0 127 0" result="hardAlpha"/>
<feOffset dy="15"/>
<feGaussianBlur stdDeviation="10"/>
<feColorMatrix type="matrix" values="0 0 0 0 0 0 0 0 0 0 0 0 0 0 0 0 0 0 0.05 0"/>
<feBlend mode="normal" in2="effect1_backgroundBlur_191_3323" result="effect2_dropShadow_191_3323"/>
<feBlend mode="normal" in="SourceGraphic" in2="effect2_dropShadow_191_3323" result="shape"/>
</filter>
</defs>
</svg>
