<svg width="24" height="24" viewBox="0 0 24 24" fill="none" xmlns="http://www.w3.org/2000/svg">
<path d="M20.9425 10.2469L19.4302 5.70947C19.0894 4.68701 18.1362 4 17.0586 4H6.94141C5.86377 4 4.91064 4.68701 4.56982 5.70947L3.0575 10.2469C2.43121 10.5851 2 11.2396 2 12V16.5C2 17.151 2.41925 17.7008 3 17.9079V18.5C3 19.3271 3.67285 20 4.5 20H6.5C7.32715 20 8 19.3271 8 18.5V18H16V18.5C16 19.3271 16.6729 20 17.5 20H19.5C20.3271 20 21 19.3271 21 18.5V17.9079C21.5807 17.7008 22 17.151 22 16.5V12C22 11.2396 21.5688 10.5851 20.9425 10.2469ZM5.51807 6.02588C5.72314 5.41211 6.29492 5 6.94141 5H17.0586C17.7051 5 18.2769 5.41211 18.4819 6.02588L19.8065 10H4.19348L5.51807 6.02588ZM7 18.5C7 18.7759 6.77588 19 6.5 19H4.5C4.22412 19 4 18.7759 4 18.5V18H7V18.5ZM19.5 19H17.5C17.2241 19 17 18.7759 17 18.5V18H20V18.5C20 18.7759 19.7759 19 19.5 19ZM21 16.5C21 16.7759 20.7759 17 20.5 17H3.5C3.22412 17 3 16.7759 3 16.5V12C3 11.4487 3.44873 11 4 11H20C20.5513 11 21 11.4487 21 12V16.5Z" fill="black" stroke="black" stroke-width="0.2"/>
<path d="M6 12C4.89697 12 4 12.897 4 14C4 15.103 4.89697 16 6 16C7.10303 16 8 15.103 8 14C8 12.897 7.10303 12 6 12ZM6 15C5.44873 15 5 14.5513 5 14C5 13.4487 5.44873 13 6 13C6.55127 13 7 13.4487 7 14C7 14.5513 6.55127 15 6 15Z" fill="black" stroke="black" stroke-width="0.2"/>
<path d="M18 12C16.897 12 16 12.897 16 14C16 15.103 16.897 16 18 16C19.103 16 20 15.103 20 14C20 12.897 19.103 12 18 12ZM18 15C17.4487 15 17 14.5513 17 14C17 13.4487 17.4487 13 18 13C18.5513 13 19 13.4487 19 14C19 14.5513 18.5513 15 18 15Z" fill="black" stroke="black" stroke-width="0.2"/>
</svg>
