<svg width="18" height="16" viewBox="0 0 18 16" fill="none" xmlns="http://www.w3.org/2000/svg">
<path d="M17.8389 6.48619C17.7 6.28671 14.379 1.6001 9.00001 1.6001C3.621 1.6001 0.300006 6.28671 0.161103 6.48619C-0.0537011 6.79517 -0.0537011 7.20499 0.161103 7.51398C0.300006 7.71349 3.621 12.4001 9.00001 12.4001C14.379 12.4001 17.7 7.71349 17.8389 7.51402C18.0537 7.20499 18.0537 6.79521 17.8389 6.48619ZM9.00001 11.5001C4.02962 11.5001 0.900017 7.0001 0.900017 7.0001C0.900017 7.0001 4.02962 2.5001 9.00001 2.5001C13.9704 2.5001 17.1 7.0001 17.1 7.0001C17.1 7.0001 13.9704 11.5001 9.00001 11.5001Z" fill="#808080"/>
<path d="M8.9999 3.3999C7.01182 3.3999 5.3999 5.0115 5.3999 6.9999C5.3999 8.9883 7.0115 10.5999 8.9999 10.5999C10.9883 10.5999 12.5999 8.9883 12.5999 6.9999C12.5999 5.0115 10.988 3.3999 8.9999 3.3999ZM8.9999 9.6999C7.511 9.6999 6.2999 8.4888 6.2999 6.9999C6.2999 5.511 7.511 4.2999 8.9999 4.2999C10.4888 4.2999 11.6999 5.511 11.6999 6.9999C11.6999 8.4888 10.4888 9.6999 8.9999 9.6999Z" fill="#808080"/>
<line x1="15.0504" y1="0.70531" x2="2.70531" y2="14.9496" stroke="#808080" stroke-linecap="round"/>
</svg>
