<svg width="44" height="44" viewBox="0 0 44 44" fill="none" xmlns="http://www.w3.org/2000/svg">
<circle cx="22" cy="22" r="22" fill="#F6EEF6"/>
<path d="M30.3082 27.2751C30.3082 27.5751 30.2415 27.8834 30.0998 28.1834C29.9582 28.4834 29.7748 28.7667 29.5332 29.0334C29.1248 29.4834 28.6748 29.8084 28.1665 30.0167C27.6665 30.2251 27.1248 30.3334 26.5415 30.3334C25.6915 30.3334 24.7832 30.1334 23.8248 29.7251C22.8665 29.3167 21.9082 28.7667 20.9582 28.0751C19.9998 27.3751 19.0915 26.6001 18.2248 25.7417C17.3665 24.8751 16.5915 23.9667 15.8998 23.0167C15.2165 22.0667 14.6665 21.1167 14.2665 20.1751C13.8665 19.2251 13.6665 18.3167 13.6665 17.4501C13.6665 16.8834 13.7665 16.3417 13.9665 15.8417C14.1665 15.3334 14.4832 14.8667 14.9248 14.4501C15.4582 13.9251 16.0415 13.6667 16.6582 13.6667C16.8915 13.6667 17.1248 13.7167 17.3332 13.8167C17.5498 13.9167 17.7415 14.0667 17.8915 14.2834L19.8248 17.0084C19.9748 17.2167 20.0832 17.4084 20.1582 17.5917C20.2332 17.7667 20.2748 17.9417 20.2748 18.1001C20.2748 18.3001 20.2165 18.5001 20.0998 18.6917C19.9915 18.8834 19.8332 19.0834 19.6332 19.2834L18.9998 19.9417C18.9082 20.0334 18.8665 20.1417 18.8665 20.2751C18.8665 20.3417 18.8748 20.4001 18.8915 20.4667C18.9165 20.5334 18.9415 20.5834 18.9582 20.6334C19.1082 20.9084 19.3665 21.2667 19.7332 21.7001C20.1082 22.1334 20.5082 22.5751 20.9415 23.0167C21.3915 23.4584 21.8248 23.8667 22.2665 24.2417C22.6998 24.6084 23.0582 24.8584 23.3415 25.0084C23.3832 25.0251 23.4332 25.0501 23.4915 25.0751C23.5582 25.1001 23.6248 25.1084 23.6998 25.1084C23.8415 25.1084 23.9498 25.0584 24.0415 24.9667L24.6748 24.3417C24.8832 24.1334 25.0832 23.9751 25.2748 23.8751C25.4665 23.7584 25.6582 23.7001 25.8665 23.7001C26.0248 23.7001 26.1915 23.7334 26.3748 23.8084C26.5582 23.8834 26.7498 23.9917 26.9582 24.1334L29.7165 26.0917C29.9332 26.2417 30.0832 26.4167 30.1748 26.6251C30.2582 26.8334 30.3082 27.0417 30.3082 27.2751Z" stroke="#673763" stroke-width="1.5" stroke-miterlimit="10"/>
</svg>
