<svg width="22" height="22" viewBox="0 0 22 22" fill="none" xmlns="http://www.w3.org/2000/svg">
<path d="M20.3351 15.4201L17.89 12.9749C17.4511 12.5361 16.9495 12.2853 16.3853 12.2853C15.821 12.2853 15.3194 12.5361 14.8179 12.9749L13.3758 14.4169C13.2505 14.3542 13.1251 14.2915 12.9997 14.2288C12.8116 14.1661 12.6862 14.0408 12.5608 13.9781C11.2442 13.163 9.99027 12.0345 8.86174 10.5925C8.29748 9.90282 7.9213 9.27586 7.67052 8.6489C8.04669 8.33542 8.36017 7.95925 8.73635 7.64577C8.86174 7.52038 8.98713 7.39498 9.11252 7.26959C10.053 6.32915 10.053 5.07524 9.11252 4.1348L7.85861 2.88088C7.73321 2.75549 7.54513 2.5674 7.41973 2.44201C7.16895 2.19122 6.91817 1.94044 6.60469 1.68966C6.16582 1.25078 5.66425 1 5.09998 1C4.53572 1 4.03415 1.25078 3.59528 1.68966L2.02788 3.19436C1.46362 3.75862 1.15014 4.44828 1.02475 5.26332C0.899357 6.57994 1.27553 7.77116 1.58901 8.58621C2.34136 10.5298 3.40719 12.348 5.03729 14.2915C6.98086 16.6113 9.36331 18.4922 12.0592 19.8088C13.0624 20.3103 14.4417 20.8746 16.0091 21C16.1345 21 16.1972 21 16.3226 21C17.3884 21 18.2034 20.6238 18.8931 19.8715C19.1439 19.558 19.3947 19.3072 19.7081 19.0564C19.8962 18.8683 20.0843 18.6803 20.2724 18.4922C20.7113 18.0533 20.9621 17.489 20.9621 16.9248C21.0248 16.4232 20.774 15.8589 20.3351 15.4201ZM19.4574 17.6771C19.2693 17.8652 19.0812 18.0533 18.8931 18.2414C18.5796 18.4922 18.3288 18.8056 18.0153 19.1191C17.5765 19.6207 17.0122 19.8088 16.3226 19.8088C16.2599 19.8088 16.1972 19.8088 16.1345 19.8088C14.8179 19.7461 13.5639 19.1818 12.6235 18.7429C10.053 17.489 7.85861 15.7335 5.97773 13.5392C4.47303 11.721 3.40719 9.96552 2.71754 8.14734C2.34136 7.0815 2.21597 6.20376 2.27867 5.38871C2.34136 4.88715 2.52945 4.44828 2.90563 4.0721L4.41033 2.5674C4.66111 2.37931 4.8492 2.25392 5.09998 2.25392C5.41346 2.25392 5.60155 2.44201 5.72694 2.5674C6.04042 2.81818 6.3539 3.06897 6.60469 3.31975C6.73008 3.50784 6.85547 3.63323 7.04356 3.75862L8.29748 5.01254C8.79904 5.51411 8.79904 5.95298 8.29748 6.39185C8.17209 6.51724 8.04669 6.64263 7.9213 6.76802C7.54513 7.1442 7.16895 7.52038 6.79277 7.83386C6.4166 8.21003 6.4793 8.58621 6.54199 8.83699V8.89969C6.85547 9.65204 7.29434 10.4044 7.984 11.2821C9.23792 12.7868 10.5545 13.9781 11.9965 14.9185C12.1846 15.0439 12.3727 15.1066 12.5608 15.232C12.7489 15.2947 12.8743 15.4201 12.9997 15.4828C12.9997 15.4828 13.0624 15.4828 13.0624 15.5455C13.1878 15.6082 13.3758 15.6708 13.5012 15.6708C13.8774 15.6708 14.1282 15.4201 14.1909 15.3574L15.7583 13.79C15.8837 13.6646 16.1345 13.4765 16.4479 13.4765C16.6987 13.4765 16.9495 13.6646 17.0749 13.79L19.5827 16.2978C19.9589 16.7367 19.9589 17.2382 19.4574 17.6771Z" fill="#4D4D4D" stroke="#4D4D4D" stroke-width="1.5"/>
</svg>
