<svg width="44" height="44" viewBox="0 0 44 44" fill="none" xmlns="http://www.w3.org/2000/svg">
<circle cx="22" cy="22" r="22" fill="#F6EEF6"/>
<path d="M30.3083 27.2748C30.3083 27.5748 30.2416 27.8832 30.1 28.1832C29.9583 28.4832 29.775 28.7665 29.5333 29.0332C29.125 29.4832 28.675 29.8082 28.1666 30.0165C27.6666 30.2248 27.125 30.3332 26.5416 30.3332C25.6916 30.3332 24.7833 30.1332 23.825 29.7248C22.8666 29.3165 21.9083 28.7665 20.9583 28.0748C20 27.3748 19.0916 26.5998 18.225 25.7415C17.3666 24.8748 16.5916 23.9665 15.9 23.0165C15.2166 22.0665 14.6666 21.1165 14.2666 20.1748C13.8666 19.2248 13.6666 18.3165 13.6666 17.4498C13.6666 16.8832 13.7666 16.3415 13.9666 15.8415C14.1666 15.3332 14.4833 14.8665 14.925 14.4498C15.4583 13.9248 16.0416 13.6665 16.6583 13.6665C16.8916 13.6665 17.125 13.7165 17.3333 13.8165C17.55 13.9165 17.7416 14.0665 17.8916 14.2832L19.825 17.0082C19.975 17.2165 20.0833 17.4082 20.1583 17.5915C20.2333 17.7665 20.275 17.9415 20.275 18.0998C20.275 18.2998 20.2166 18.4998 20.1 18.6915C19.9916 18.8832 19.8333 19.0832 19.6333 19.2832L19 19.9415C18.9083 20.0332 18.8666 20.1415 18.8666 20.2748C18.8666 20.3415 18.875 20.3998 18.8916 20.4665C18.9166 20.5332 18.9416 20.5832 18.9583 20.6332C19.1083 20.9082 19.3666 21.2665 19.7333 21.6998C20.1083 22.1332 20.5083 22.5748 20.9416 23.0165C21.3916 23.4582 21.825 23.8665 22.2666 24.2415C22.7 24.6082 23.0583 24.8582 23.3416 25.0082C23.3833 25.0248 23.4333 25.0498 23.4916 25.0748C23.5583 25.0998 23.625 25.1082 23.7 25.1082C23.8416 25.1082 23.95 25.0582 24.0416 24.9665L24.675 24.3415C24.8833 24.1332 25.0833 23.9748 25.275 23.8748C25.4666 23.7582 25.6583 23.6998 25.8666 23.6998C26.025 23.6998 26.1916 23.7332 26.375 23.8082C26.5583 23.8832 26.75 23.9915 26.9583 24.1332L29.7166 26.0915C29.9333 26.2415 30.0833 26.4165 30.175 26.6248C30.2583 26.8332 30.3083 27.0415 30.3083 27.2748Z" stroke="#673763" stroke-width="1.5" stroke-miterlimit="10"/>
</svg>
