<svg width="21" height="21" viewBox="0 0 21 21" fill="none" xmlns="http://www.w3.org/2000/svg">
<circle cx="10.5" cy="10.5" r="10.5" fill="#A956A9"/>
<path d="M15.1691 8.57704C14.6003 6.07454 12.4174 4.94788 10.4999 4.94788C10.4999 4.94788 10.4999 4.94788 10.4945 4.94788C8.58243 4.94788 6.3941 6.06913 5.82535 8.57163C5.1916 11.3666 6.90326 13.7337 8.45243 15.2233C9.0266 15.7758 9.76326 16.052 10.4999 16.052C11.2366 16.052 11.9733 15.7758 12.542 15.2233C14.0912 13.7337 15.8028 11.372 15.1691 8.57704ZM10.4999 11.2908C9.55743 11.2908 8.79368 10.527 8.79368 9.58454C8.79368 8.64204 9.55743 7.87829 10.4999 7.87829C11.4424 7.87829 12.2062 8.64204 12.2062 9.58454C12.2062 10.527 11.4424 11.2908 10.4999 11.2908Z" fill="white"/>
</svg>
