<svg width="20" height="23" viewBox="0 0 20 23" fill="none" xmlns="http://www.w3.org/2000/svg">
<path d="M19.7183 7.51707C18.5352 2.33366 13.9944 0 10.0056 0C10.0056 0 10.0056 0 9.99436 0C6.01689 0 1.46477 2.32244 0.281666 7.50585C-1.03665 13.2951 2.52393 18.198 5.74647 21.2834C6.94084 22.4278 8.47324 23 10.0056 23C11.538 23 13.0704 22.4278 14.2535 21.2834C17.4761 18.198 21.0366 13.3063 19.7183 7.51707ZM10.0056 13.138C8.04506 13.138 6.45633 11.5561 6.45633 9.6039C6.45633 7.65171 8.04506 6.06976 10.0056 6.06976C11.9662 6.06976 13.5549 7.65171 13.5549 9.6039C13.5549 11.5561 11.9662 13.138 10.0056 13.138Z" fill="#F26060"/>
</svg>
