<svg width="18" height="18" viewBox="0 0 18 18" fill="none" xmlns="http://www.w3.org/2000/svg">
<path d="M5.40015 8.9999C5.40015 8.50282 5.80303 8.09994 6.30011 8.09994H8.10019V6.29986C8.10019 5.80279 8.50307 5.3999 9.00015 5.3999C9.49723 5.3999 9.90011 5.80279 9.90011 6.29986V8.09994H11.7002C12.1973 8.09994 12.6002 8.50282 12.6002 8.9999C12.6002 9.49698 12.1973 9.89986 11.7002 9.89986H9.90011V11.6999C9.90011 12.197 9.49723 12.5999 9.00015 12.5999C8.50307 12.5999 8.10019 12.197 8.10019 11.6999V9.89986H6.30011C5.80303 9.89986 5.40015 9.49698 5.40015 8.9999Z" fill="black"/>
<path fill-rule="evenodd" clip-rule="evenodd" d="M0 9C0 4.02923 4.02923 0 9 0C13.9708 0 18 4.02923 18 9C18 13.9708 13.9708 18 9 18C4.02923 18 0 13.9708 0 9ZM9 1.79977C5.02362 1.79977 1.79977 5.02338 1.79977 9C1.79977 12.9766 5.02338 16.2002 9 16.2002C12.9766 16.2002 16.2002 12.9766 16.2002 9C16.2002 5.02338 12.9766 1.79977 9 1.79977Z" fill="black"/>
</svg>
