<svg width="34" height="34" viewBox="0 0 34 34" fill="none" xmlns="http://www.w3.org/2000/svg">
<rect width="34" height="34" rx="6" fill="white"/>
<path fill-rule="evenodd" clip-rule="evenodd" d="M19.7223 24.0005C19.7048 24.0005 19.6882 23.9997 19.6715 23.9989C19.2948 23.9764 18.9807 23.703 18.9057 23.333L17.624 17.0272C17.5573 16.6989 17.3015 16.443 16.9732 16.3764L10.6673 15.0939C10.2973 15.0197 10.024 14.7055 10.0015 14.3289C9.979 13.9514 10.2115 13.6064 10.5698 13.488L23.9032 9.04387C24.2023 8.9422 24.5323 9.02054 24.7557 9.2447C24.979 9.46804 25.0565 9.79804 24.9573 10.0972L20.5123 23.4305C20.399 23.773 20.079 24.0005 19.7223 24.0005" fill="#884E7E"/>
</svg>
