<svg width="24" height="24" viewBox="0 0 24 24" fill="none" xmlns="http://www.w3.org/2000/svg">
<path d="M19.59 15.5L17.77 14.2C18.07 13.12 18.09 11.95 17.77 10.78L19.59 9.5L18.14 7L16.11 7.92C15.32 7.12 14.32 6.5 13.15 6.21L12.95 4H10.05L9.84996 6.21C8.67996 6.5 7.67996 7.12 6.88996 7.92L4.85996 7L3.40996 9.5L5.22996 10.78C4.90996 11.95 4.92996 13.12 5.22996 14.2L3.40996 15.5L4.85996 18L6.88996 17.07C7.67996 17.86 8.67996 18.46 9.84996 18.77L10.05 21H12.95L13.15 18.77C14.32 18.46 15.32 17.86 16.11 17.07L18.14 18L19.59 15.5ZM13.5 3C13.77 3 14 3.2 14 3.46L14.18 5.5C14.94 5.78 15.62 6.19 16.23 6.68L18.08 5.81C18.31 5.69 18.6 5.77 18.74 6L20.74 9.5C20.88 9.71 20.8 10 20.58 10.15L18.91 11.32C19.04 12.12 19.03 12.91 18.91 13.68L20.58 14.85C20.8 15 20.88 15.29 20.74 15.5L18.74 19C18.6 19.21 18.31 19.29 18.08 19.17L16.23 18.31C15.62 18.8 14.94 19.2 14.18 19.5L14 21.5C14 21.79 13.77 22 13.5 22H9.49996C9.21996 22 8.99996 21.78 8.99996 21.5L8.81996 19.5C8.05996 19.2 7.37996 18.8 6.76996 18.31L4.91996 19.17C4.68996 19.29 4.39996 19.21 4.25996 19L2.25996 15.5C2.11996 15.29 2.19996 15 2.41996 14.85L4.08996 13.68C3.96996 12.91 3.95996 12.12 4.08996 11.32L2.41996 10.15C2.19996 10 2.11996 9.71 2.25996 9.5L4.25996 6C4.39996 5.77 4.68996 5.69 4.91996 5.81L6.76996 6.68C7.37996 6.19 8.05996 5.78 8.81996 5.5L8.99996 3.46C8.99996 3.2 9.22996 3 9.49996 3H13.5ZM11.5 9C13.43 9 15 10.57 15 12.5C15 14.43 13.43 16 11.5 16C9.56996 16 7.99996 14.43 7.99996 12.5C7.99996 10.57 9.56996 9 11.5 9ZM11.5 10C10.12 10 8.99996 11.12 8.99996 12.5C8.99996 13.88 10.12 15 11.5 15C12.88 15 14 13.88 14 12.5C14 11.12 12.88 10 11.5 10Z" fill="black" stroke="black" stroke-width="0.5"/>
</svg>
