<svg width="56" height="56" viewBox="0 0 56 56" fill="none" xmlns="http://www.w3.org/2000/svg">
<circle cx="28" cy="28" r="28" fill="white"/>
<path d="M28.0072 35.4813C28.0072 35.9041 27.7629 36.2882 27.3806 36.4675C27.2328 36.5374 27.0744 36.5712 26.9171 36.5712C26.6679 36.5712 26.421 36.4856 26.2216 36.3202L20.2633 31.3829H17.0899C16.4881 31.3834 16 30.8951 16 30.2932V25.951C16 25.3489 16.4881 24.8609 17.0899 24.8609H20.2635L26.2219 19.9235C26.5474 19.6537 26.9989 19.5962 27.3809 19.7768C27.7629 19.956 28.0075 20.3404 28.0075 20.7629L28.0072 35.4813ZM32.1957 33.7783C32.1691 33.7801 32.1436 33.7811 32.1173 33.7811C31.8294 33.7811 31.5518 33.6674 31.3468 33.462L31.201 33.3158C30.8187 32.9342 30.7738 32.3298 31.0958 31.8959C31.9119 30.7955 32.3427 29.491 32.3427 28.1225C32.3427 26.6506 31.8537 25.27 30.9281 24.1298C30.5757 23.6965 30.6082 23.067 31.0032 22.6724L31.1486 22.5266C31.3664 22.3089 31.6581 22.1902 31.9739 22.2091C32.2813 22.2245 32.5685 22.3693 32.7635 22.6076C34.0473 24.1786 34.7255 26.0859 34.7255 28.1228C34.7255 30.0198 34.1258 31.8255 32.9907 33.3439C32.8011 33.5969 32.5112 33.7558 32.1957 33.7783ZM36.7017 37.1464C36.5047 37.3794 36.2196 37.5192 35.9144 37.5321C35.8995 37.5326 35.8843 37.5331 35.8688 37.5331C35.5801 37.5331 35.3031 37.4191 35.098 37.214L34.9548 37.0709C34.5547 36.671 34.5277 36.0315 34.8914 35.5987C36.6491 33.5082 37.6175 30.8533 37.6175 28.1225C37.6175 25.2821 36.5807 22.5478 34.6989 20.4232C34.3174 19.9919 34.3368 19.339 34.7428 18.9314L34.8857 18.7883C35.0977 18.5752 35.3732 18.4578 35.6892 18.4679C35.9893 18.4764 36.273 18.609 36.4724 18.8334C38.7471 21.3944 40 24.6937 40 28.1225C40.0005 31.4216 38.8291 34.6264 36.7017 37.1464Z" fill="#343B71"/>
</svg>
