<svg width="26" height="24" viewBox="0 0 26 24" fill="none" xmlns="http://www.w3.org/2000/svg">
<path opacity="0.2" d="M24.507 10.8764C25.0001 10.3959 25.1742 9.69059 24.9615 9.03499C24.7483 8.37938 24.193 7.91138 23.5108 7.81206L17.4454 6.93074C17.187 6.89312 16.9638 6.7311 16.8485 6.49684L14.1368 1.00121C13.8323 0.383731 13.2143 0 12.5256 0C11.8374 0 11.2194 0.383731 10.9149 1.00121L8.20271 6.49735C8.08734 6.7316 7.86363 6.89362 7.6053 6.93124L1.53984 7.81257C0.85815 7.91138 0.302366 8.37988 0.0891824 9.03549C-0.1235 9.69109 0.0505584 10.3964 0.54364 10.8769L4.93222 15.1546C5.11932 15.3372 5.2051 15.6 5.16095 15.8569L4.12563 21.8973C4.03384 22.429 4.17329 22.9461 4.51739 23.3539C5.05211 23.9895 5.9856 24.1831 6.732 23.7908L12.1564 20.9387C12.3831 20.8198 12.6685 20.8208 12.8948 20.9387L18.3197 23.7908C18.5835 23.9298 18.8649 24 19.1554 24C19.6856 24 20.1882 23.7642 20.5338 23.3539C20.8784 22.9461 21.0173 22.428 20.9255 21.8973L19.8897 15.8569C19.8456 15.5995 19.9313 15.3372 20.1184 15.1546L24.507 10.8764Z" fill="#666666"/>
</svg>
