<svg width="22" height="22" viewBox="0 0 22 22" fill="none" xmlns="http://www.w3.org/2000/svg">
<path d="M7.85562 14.685C7.68145 14.685 7.50729 14.6208 7.36979 14.4833C7.10395 14.2175 7.10395 13.7775 7.36979 13.5116L13.3739 7.50748C13.6398 7.24165 14.0798 7.24165 14.3456 7.50748C14.6114 7.77331 14.6114 8.21331 14.3456 8.47914L8.34145 14.4833C8.20395 14.6208 8.02978 14.685 7.85562 14.685Z" fill="#666666" stroke="#666666" stroke-width="0.2"/>
<path d="M8.23164 10.1842C7.23247 10.1842 6.41663 9.36838 6.41663 8.36921C6.41663 7.37004 7.23247 6.5542 8.23164 6.5542C9.2308 6.5542 10.0466 7.37004 10.0466 8.36921C10.0466 9.36838 9.2308 10.1842 8.23164 10.1842ZM8.23164 7.93837C7.9933 7.93837 7.79163 8.13088 7.79163 8.37838C7.79163 8.62589 7.98414 8.81837 8.23164 8.81837C8.47914 8.81837 8.67162 8.62589 8.67162 8.37838C8.67162 8.13088 8.46997 7.93837 8.23164 7.93837Z" fill="#666666" stroke="#666666" stroke-width="0.2"/>
<path d="M14.2267 15.4366C13.2276 15.4366 12.4117 14.6208 12.4117 13.6216C12.4117 12.6225 13.2276 11.8066 14.2267 11.8066C15.2259 11.8066 16.0417 12.6225 16.0417 13.6216C16.0417 14.6208 15.2259 15.4366 14.2267 15.4366ZM14.2267 13.1908C13.9884 13.1908 13.7867 13.3833 13.7867 13.6308C13.7867 13.8783 13.9792 14.0708 14.2267 14.0708C14.4742 14.0708 14.6667 13.8783 14.6667 13.6308C14.6667 13.3833 14.4742 13.1908 14.2267 13.1908Z" fill="#666666" stroke="#666666" stroke-width="0.2"/>
<path d="M11 20.8543C5.56421 20.8543 1.14587 16.436 1.14587 11.0002C1.14587 5.56433 5.56421 1.146 11 1.146C16.4359 1.146 20.8542 5.56433 20.8542 11.0002C20.8542 16.436 16.4359 20.8543 11 20.8543ZM11 2.521C6.32504 2.521 2.52087 6.32516 2.52087 11.0002C2.52087 15.6752 6.32504 19.4793 11 19.4793C15.675 19.4793 19.4792 15.6752 19.4792 11.0002C19.4792 6.32516 15.675 2.521 11 2.521Z" fill="#666666" stroke="#666666" stroke-width="0.2"/>
</svg>
