<svg width="12" height="12" viewBox="0 0 12 12" fill="none" xmlns="http://www.w3.org/2000/svg">
<path id="Fill 1" fill-rule="evenodd" clip-rule="evenodd" d="M4.5 9C4.08525 9 3.75 8.66475 3.75 8.25V5.25C3.75 4.836 4.08525 4.5 4.5 4.5C4.91475 4.5 5.25 4.836 5.25 5.25V8.25C5.25 8.66475 4.91475 9 4.5 9ZM7.5 9C7.08525 9 6.75 8.66475 6.75 8.25V5.25C6.75 4.836 7.08525 4.5 7.5 4.5C7.91475 4.5 8.25 4.836 8.25 5.25V8.25C8.25 8.66475 7.91475 9 7.5 9ZM9.75 3H2.25V8.25C2.25 9.49275 3.25725 10.5 4.5 10.5H7.5C8.74275 10.5 9.75 9.49275 9.75 8.25V3ZM11.25 3V8.25C11.25 10.3215 9.5715 12 7.5 12H4.5C2.4285 12 0.75 10.3215 0.75 8.25V3C0.33525 3 0 2.66475 0 2.25C0 1.836 0.33525 1.5 0.75 1.5H4.5C4.5 0.672 5.172 0 6 0C6.828 0 7.5 0.672 7.5 1.5H11.25C11.6648 1.5 12 1.836 12 2.25C12 2.66475 11.6648 3 11.25 3Z" fill="white"/>
</svg>
