<svg width="8" height="8" viewBox="0 0 8 8" fill="none" xmlns="http://www.w3.org/2000/svg">
<path d="M2.99984 0.666748C2.1265 0.666748 1.4165 1.37675 1.4165 2.25008C1.4165 3.10675 2.0865 3.80008 2.95984 3.83008C2.9865 3.82675 3.01317 3.82675 3.03317 3.83008C3.03984 3.83008 3.04317 3.83008 3.04984 3.83008C3.05317 3.83008 3.05317 3.83008 3.0565 3.83008C3.90984 3.80008 4.57984 3.10675 4.58317 2.25008C4.58317 1.37675 3.87317 0.666748 2.99984 0.666748Z" fill="#292D32"/>
<path d="M4.69332 4.71671C3.76332 4.09671 2.24665 4.09671 1.30999 4.71671C0.886654 5.00004 0.65332 5.38338 0.65332 5.79338C0.65332 6.20338 0.886654 6.58338 1.30665 6.86338C1.77332 7.17671 2.38665 7.33338 2.99999 7.33338C3.61332 7.33338 4.22665 7.17671 4.69332 6.86338C5.11332 6.58004 5.34665 6.20004 5.34665 5.78671C5.34332 5.37671 5.11332 4.99671 4.69332 4.71671Z" fill="#292D32"/>
<path opacity="0.5" d="M6.66313 2.44666C6.71646 3.09333 6.25646 3.65999 5.61979 3.73666C5.61646 3.73666 5.61646 3.73666 5.61313 3.73666H5.60312C5.58312 3.73666 5.56312 3.73666 5.54646 3.74333C5.22312 3.75999 4.92646 3.65666 4.70312 3.46666C5.04646 3.15999 5.24313 2.69999 5.20313 2.19999C5.17979 1.92999 5.08646 1.68333 4.94646 1.47333C5.07313 1.40999 5.21979 1.36999 5.36979 1.35666C6.02313 1.29999 6.60646 1.78666 6.66313 2.44666Z" fill="#292D32"/>
<path opacity="0.5" d="M7.32975 5.52997C7.30309 5.8533 7.09642 6.1333 6.74975 6.3233C6.41642 6.50664 5.99642 6.5933 5.57975 6.5833C5.81975 6.36664 5.95975 6.09664 5.98642 5.80997C6.01975 5.39664 5.82309 4.99997 5.42975 4.6833C5.20642 4.50664 4.94642 4.36664 4.66309 4.2633C5.39975 4.04997 6.32642 4.1933 6.89642 4.6533C7.20309 4.89997 7.35975 5.20997 7.32975 5.52997Z" fill="#292D32"/>
</svg>
