<svg width="16" height="17" viewBox="0 0 16 17" fill="none" xmlns="http://www.w3.org/2000/svg">
<path d="M11.2701 8.58954C12.2666 7.69832 12.8577 6.43998 12.9072 5.10397C12.9568 3.76801 12.4607 2.46921 11.5331 1.50645C10.6054 0.543895 9.32609 0 7.98916 0C6.65222 0 5.37289 0.543944 4.44524 1.50645C3.5176 2.46921 3.02155 3.76796 3.0711 5.10397C3.12069 6.43993 3.71172 7.69832 4.70821 8.58954C3.33373 9.07091 2.14267 9.9669 1.29934 11.1541C0.456012 12.3411 0.00209942 13.7608 0 15.2172C0 15.5179 0.160586 15.796 0.421104 15.9465C0.681622 16.0968 1.00259 16.0968 1.26312 15.9465C1.52382 15.796 1.68422 15.5179 1.68422 15.2172C1.68575 13.7992 2.24969 12.4397 3.25229 11.4371C4.25488 10.4345 5.61433 9.87058 7.03212 9.86906H8.96787C10.3859 9.87059 11.7453 10.4345 12.7479 11.4371C13.7505 12.4397 14.3145 13.7992 14.316 15.2172C14.316 15.5179 14.4764 15.796 14.7369 15.9465C14.9974 16.0968 15.3186 16.0968 15.5791 15.9465C15.8396 15.796 16 15.5179 16 15.2172C15.9966 13.7582 15.5394 12.3366 14.6919 11.1492C13.8443 9.96178 12.6485 9.06709 11.27 8.58954H11.2701ZM7.98921 1.72689C8.84342 1.72689 9.66254 2.06618 10.2666 2.67016C10.8708 3.27416 11.2101 4.09347 11.2101 4.94769C11.2101 5.80191 10.8708 6.62102 10.2666 7.22507C9.66259 7.82906 8.84347 8.16834 7.98921 8.16834C7.13494 8.16834 6.31587 7.82905 5.71183 7.22507C5.10763 6.62107 4.76836 5.80196 4.76836 4.94769C4.76836 4.09342 5.10764 3.27416 5.71183 2.67016C6.31582 2.06617 7.13494 1.72689 7.98921 1.72689Z" fill="black"/>
</svg>
