<svg width="18" height="12" viewBox="0 0 18 12" fill="none" xmlns="http://www.w3.org/2000/svg">
<path d="M17.8389 5.48619C17.7 5.28671 14.379 0.600098 9.00001 0.600098C3.621 0.600098 0.300006 5.28671 0.161103 5.48619C-0.0537011 5.79517 -0.0537011 6.20499 0.161103 6.51398C0.300006 6.71349 3.621 11.4001 9.00001 11.4001C14.379 11.4001 17.7 6.71349 17.8389 6.51402C18.0537 6.20499 18.0537 5.79521 17.8389 5.48619ZM9.00001 10.5001C4.02962 10.5001 0.900017 6.0001 0.900017 6.0001C0.900017 6.0001 4.02962 1.5001 9.00001 1.5001C13.9704 1.5001 17.1 6.0001 17.1 6.0001C17.1 6.0001 13.9704 10.5001 9.00001 10.5001Z" fill="#808080"/>
<path d="M8.9999 2.3999C7.01182 2.3999 5.3999 4.0115 5.3999 5.9999C5.3999 7.9883 7.0115 9.5999 8.9999 9.5999C10.9883 9.5999 12.5999 7.9883 12.5999 5.9999C12.5999 4.0115 10.988 2.3999 8.9999 2.3999ZM8.9999 8.6999C7.511 8.6999 6.2999 7.4888 6.2999 5.9999C6.2999 4.511 7.511 3.2999 8.9999 3.2999C10.4888 3.2999 11.6999 4.511 11.6999 5.9999C11.6999 7.4888 10.4888 8.6999 8.9999 8.6999Z" fill="#808080"/>
</svg>
